<?xml version="1.0" encoding="UTF-8"?><svg id="Ebene_1" xmlns="http://www.w3.org/2000/svg" viewBox="0 0 109.79 107.42"><defs><style>.cls-1{fill:#fff;}</style></defs><path class="cls-1" d="M66.49,4.68c-1.41-.24-3.77.66-3.77.66,0,0,1.13,1.54,3.42,2.33,1.83.63,3.9-.54,3.9-.54,0,0-1.58-2.12-3.55-2.46ZM70.44,5.44c.84,1.59,3.57,3.25,3.57,3.25,0,0,.67-2.32-.31-5.21C72.92,1.17,70.16,0,70.16,0c0,0-.91,3.2.27,5.43ZM65.99,12.67s2.8,1.07,4.97-.05c2.72-1.41,3.84-3.54,3.84-3.54,0,0-3.12-.69-4.83-.13-2.4.79-3.98,3.72-3.98,3.72ZM78.12,8.71c.56,1.74,3.01,3.9,3.01,3.9,0,0,1.08-2.21.62-5.29-.37-2.46-2.94-4.13-2.94-4.13,0,0-1.48,3.06-.69,5.52ZM72.37,15.19s2.62,1.57,5,.83c2.98-.93,4.49-2.87,4.49-2.87,0,0-3.02-1.25-4.83-.99-2.56.36-4.66,3.03-4.66,3.03ZM85.24,13.32c.26,1.85,2.33,4.45,2.33,4.45,0,0,1.48-2.03,1.56-5.21.06-2.54-2.22-4.66-2.22-4.66,0,0-2.03,2.82-1.67,5.42ZM78.32,18.83s2.36,2.04,4.88,1.71c3.16-.41,5.02-2.09,5.02-2.09,0,0-2.81-1.78-4.68-1.84-2.63-.09-5.22,2.22-5.22,2.22ZM91.5,19.16c-.07,1.91,1.55,4.89,1.55,4.89,0,0,1.85-1.78,2.49-4.96.52-2.54-1.4-5.08-1.4-5.08,0,0-2.55,2.46-2.64,5.15ZM83.57,23.46s2.01,2.47,4.6,2.59c3.25.15,5.42-1.22,5.42-1.22,0,0-2.51-2.29-4.38-2.68-2.63-.55-5.64,1.31-5.64,1.31ZM96.7,26.08c-.41,1.91.69,5.19.69,5.19,0,0,2.18-1.46,3.39-4.54.97-2.46-.51-5.35-.51-5.35,0,0-2.99,2.03-3.57,4.71ZM87.96,29s1.57,2.83,4.16,3.41c3.24.72,5.66-.26,5.66-.26,0,0-2.11-2.75-3.92-3.47-2.55-1.03-5.9.32-5.9.32ZM100.59,33.82c-.75,1.84-.22,5.34-.22,5.34,0,0,2.44-1.08,4.2-3.96,1.41-2.31.44-5.47.44-5.47,0,0-3.37,1.51-4.42,4.1ZM91.29,35.21s1.08,3.12,3.58,4.16c3.12,1.3,5.74.74,5.74.74,0,0-1.63-3.13-3.33-4.18-2.38-1.48-5.99-.72-5.99-.72ZM103.04,42.16c-1.08,1.72-1.17,5.33-1.17,5.33,0,0,2.65-.66,4.93-3.24,1.83-2.06,1.41-5.42,1.41-5.42,0,0-3.65.92-5.17,3.33ZM93.45,41.91s.52,3.33,2.85,4.82c2.91,1.86,5.63,1.76,5.63,1.76,0,0-1.08-3.43-2.6-4.79-2.12-1.9-5.89-1.78-5.89-1.78ZM104.01,50.73c-1.39,1.54-2.12,5.14-2.12,5.14,0,0,2.78-.19,5.53-2.39,2.2-1.76,2.38-5.19,2.38-5.19,0,0-3.82.28-5.78,2.44ZM94.41,48.78s-.06,3.44,2.02,5.35c2.59,2.38,5.35,2.76,5.35,2.76,0,0-.48-3.64-1.76-5.27-1.8-2.29-5.6-2.83-5.6-2.83ZM103.53,59.17c-1.67,1.3-3.05,4.79-3.05,4.79,0,0,2.83.3,5.98-1.42,2.52-1.38,3.32-4.8,3.32-4.8,0,0-3.9-.4-6.25,1.43ZM94.23,55.51s-.67,3.45,1.08,5.73c2.18,2.85,4.88,3.72,4.88,3.72,0,0,.17-3.75-.83-5.62-1.4-2.61-5.13-3.84-5.13-3.84ZM101.58,67.38c-1.91,1.01-3.91,4.28-3.91,4.28,0,0,2.78.8,6.26-.37,2.78-.93,4.18-4.24,4.18-4.24,0,0-3.85-1.08-6.53.33ZM92.89,62.06s-1.29,3.35.06,5.95c1.69,3.25,4.25,4.6,4.25,4.6,0,0,.83-3.73.16-5.78-.95-2.88-4.47-4.76-4.47-4.76ZM98.24,75.2c-2.1.67-4.69,3.61-4.69,3.61,0,0,2.66,1.3,6.36.74,2.96-.45,4.95-3.52,4.95-3.52,0,0-3.67-1.78-6.62-.83ZM90.45,68.31s-1.89,3.14-1,5.99c1.12,3.56,3.45,5.38,3.45,5.38,0,0,1.5-3.61,1.18-5.79-.43-3.06-3.64-5.58-3.64-5.58ZM93.52,82.36c-2.23.31-5.35,2.79-5.35,2.79,0,0,2.44,1.77,6.25,1.87,3.05.08,5.6-2.66,5.6-2.66,0,0-3.38-2.43-6.5-2ZM86.91,74.07s-2.46,2.82-2.06,5.84c.49,3.78,2.51,6.01,2.51,6.01,0,0,2.15-3.36,2.22-5.61.1-3.15-2.68-6.25-2.68-6.25ZM87.62,88.64c-2.29-.08-5.87,1.86-5.87,1.86,0,0,2.14,2.21,5.95,2.98,3.06.62,6.1-1.68,6.1-1.68,0,0-2.96-3.04-6.18-3.16ZM82.45,79.14s-2.97,2.4-3.11,5.51c-.18,3.89,1.46,6.49,1.46,6.49,0,0,2.76-3,3.23-5.24.66-3.15-1.58-6.75-1.58-6.75ZM80.71,93.78c-2.29-.49-6.23.83-6.23.83,0,0,1.76,2.6,5.46,4.05,2.96,1.16,6.43-.61,6.43-.61,0,0-2.44-3.58-5.66-4.27ZM77.2,83.32s-3.41,1.88-4.1,4.98c-.87,3.87.32,6.78.32,6.78,0,0,3.3-2.52,4.17-4.7,1.22-3.04-.39-7.06-.39-7.06ZM73.01,97.68c-2.21-.9-6.41-.27-6.41-.27,0,0,1.3,2.93,4.76,5.04,2.77,1.69,6.57.52,6.57.52,0,0-1.82-4.03-4.93-5.29ZM71.35,86.55s-3.76,1.29-5,4.28c-1.56,3.74-.89,6.87-.89,6.87,0,0,3.76-1.95,5.03-3.98,1.77-2.84.86-7.17.86-7.17ZM39.76,7.14s2.06,1.17,3.9.54c2.29-.78,3.42-2.33,3.42-2.33,0,0-2.37-.9-3.77-.66-1.97.34-3.55,2.46-3.55,2.46ZM39.64,0s-2.76,1.17-3.54,3.48c-.97,2.89-.31,5.21-.31,5.21,0,0,2.73-1.67,3.57-3.25,1.18-2.23.28-5.43.28-5.43ZM39.83,8.95c-1.71-.56-4.83.13-4.83.13,0,0,1.13,2.13,3.84,3.54,2.17,1.13,4.97.06,4.97.06,0,0-1.58-2.94-3.98-3.72ZM30.99,3.19s-2.57,1.66-2.94,4.13c-.47,3.08.62,5.29.62,5.29,0,0,2.45-2.16,3.01-3.91.79-2.46-.69-5.52-.69-5.52ZM32.77,12.16c-1.82-.26-4.84.99-4.84.99,0,0,1.52,1.94,4.49,2.87,2.38.75,5-.83,5-.83,0,0-2.11-2.67-4.66-3.03ZM22.88,7.91s-2.29,2.12-2.22,4.67c.08,3.17,1.56,5.21,1.56,5.21,0,0,2.08-2.6,2.34-4.45.36-2.61-1.67-5.42-1.67-5.42ZM26.26,16.6c-1.88.06-4.68,1.84-4.68,1.84,0,0,1.87,1.69,5.02,2.1,2.53.33,4.88-1.71,4.88-1.71,0,0-2.59-2.31-5.22-2.23ZM15.65,14.01s-1.92,2.53-1.4,5.08c.64,3.18,2.49,4.96,2.49,4.96,0,0,1.63-2.98,1.55-4.89-.1-2.68-2.64-5.15-2.64-5.15ZM20.59,22.15c-1.87.4-4.38,2.68-4.38,2.68,0,0,2.18,1.36,5.42,1.21,2.6-.12,4.6-2.59,4.6-2.59,0,0-3.01-1.86-5.64-1.31ZM9.53,21.37s-1.48,2.89-.51,5.35c1.21,3.08,3.39,4.54,3.39,4.54,0,0,1.1-3.28.69-5.19-.58-2.68-3.57-4.71-3.57-4.71ZM15.93,28.68c-1.81.72-3.92,3.47-3.92,3.47,0,0,2.43.98,5.66.26,2.59-.57,4.16-3.41,4.16-3.41,0,0-3.36-1.35-5.91-.32ZM4.78,29.72s-.97,3.16.44,5.47c1.76,2.88,4.2,3.96,4.2,3.96,0,0,.53-3.49-.22-5.34-1.05-2.59-4.42-4.1-4.42-4.1ZM12.52,35.93c-1.69,1.05-3.33,4.18-3.33,4.18,0,0,2.61.56,5.74-.74,2.5-1.04,3.58-4.16,3.58-4.16,0,0-3.62-.76-5.99.72ZM1.58,38.83s-.42,3.35,1.41,5.42c2.28,2.59,4.93,3.24,4.93,3.24,0,0-.09-3.6-1.17-5.33-1.52-2.41-5.17-3.33-5.17-3.33ZM10.46,43.7c-1.52,1.35-2.6,4.79-2.6,4.79,0,0,2.73.1,5.63-1.76,2.33-1.48,2.86-4.82,2.86-4.82,0,0-3.76-.12-5.89,1.78ZM0,48.29s.18,3.44,2.38,5.19c2.75,2.19,5.53,2.39,5.53,2.39,0,0-.73-3.6-2.12-5.14-1.95-2.16-5.78-2.44-5.78-2.44ZM9.78,51.62c-1.28,1.63-1.76,5.27-1.76,5.27,0,0,2.76-.38,5.35-2.76,2.07-1.9,2.02-5.35,2.02-5.35,0,0-3.81.54-5.6,2.83ZM.03,57.74s.79,3.43,3.31,4.8c3.15,1.72,5.98,1.42,5.98,1.42,0,0-1.37-3.49-3.05-4.79C3.92,57.34.03,57.74.03,57.74ZM10.44,59.35c-1,1.87-.84,5.62-.84,5.62,0,0,2.71-.87,4.89-3.72,1.75-2.28,1.08-5.73,1.08-5.73,0,0-3.73,1.22-5.13,3.84ZM1.69,67.05s1.4,3.3,4.18,4.24c3.47,1.17,6.26.37,6.26.37,0,0-2-3.26-3.91-4.28-2.68-1.42-6.53-.33-6.53-.33ZM12.44,66.83c-.67,2.05.16,5.78.16,5.78,0,0,2.56-1.35,4.25-4.6,1.35-2.6.06-5.95.06-5.95,0,0-3.52,1.89-4.47,4.76ZM4.94,76.02s1.99,3.07,4.95,3.52c3.7.56,6.36-.74,6.36-.74,0,0-2.59-2.93-4.69-3.61-2.95-.95-6.62.83-6.62.83ZM15.71,73.89c-.31,2.18,1.18,5.79,1.18,5.79,0,0,2.34-1.82,3.45-5.38.9-2.85-.99-5.99-.99-5.99,0,0-3.21,2.52-3.65,5.58ZM9.77,84.36s2.55,2.73,5.6,2.66c3.82-.09,6.25-1.87,6.25-1.87,0,0-3.13-2.49-5.35-2.79-3.13-.43-6.51,2-6.51,2ZM20.21,80.32c.08,2.25,2.22,5.61,2.22,5.61,0,0,2.02-2.23,2.52-6.01.39-3.02-2.06-5.84-2.06-5.84,0,0-2.78,3.09-2.68,6.25ZM15.99,91.8s3.05,2.3,6.1,1.68c3.82-.77,5.96-2.98,5.96-2.98,0,0-3.58-1.95-5.87-1.86-3.22.12-6.19,3.16-6.19,3.16ZM25.77,85.9c.47,2.24,3.23,5.24,3.23,5.24,0,0,1.64-2.6,1.46-6.49-.14-3.11-3.1-5.51-3.1-5.51,0,0-2.25,3.61-1.58,6.75ZM23.44,98.05s3.47,1.77,6.44.61c3.7-1.45,5.45-4.05,5.45-4.05,0,0-3.95-1.32-6.24-.83-3.22.69-5.65,4.27-5.65,4.27ZM32.21,90.39c.87,2.17,4.17,4.7,4.17,4.7,0,0,1.18-2.91.32-6.78-.69-3.1-4.1-4.98-4.1-4.98,0,0-1.62,4.02-.39,7.06ZM31.86,102.97s3.8,1.17,6.57-.52c3.46-2.11,4.76-5.04,4.76-5.04,0,0-4.2-.63-6.41.27-3.11,1.26-4.93,5.29-4.93,5.29ZM39.32,93.71c1.26,2.03,5.02,3.98,5.02,3.98,0,0,.67-3.13-.89-6.87-1.24-2.99-5-4.28-5-4.28,0,0-.9,4.33.87,7.17ZM47.68,107.42s5.91-7.18,19.69-9.51c13.42-3.12,29.66-16.2,33.82-34.56,4.82-18.19-3.3-37.19-13.68-46.08-10.31-9.34-19.97-10.79-19.78-10.91-.23.28,9.35,1.94,19.39,11.31,10.14,8.94,17.85,27.7,12.95,45.4-4.25,17.87-20.14,30.39-33.13,33.3-3.11.48-5.88,1.22-8.31,2.09-9.16,3.24-12.68,7.43-12.68,7.43l1.72,1.53ZM62.12,107.42s-5.91-7.18-19.69-9.51c-13.42-3.12-29.66-16.2-33.82-34.56-4.83-18.19,3.29-37.2,13.68-46.08,10.31-9.34,19.98-10.78,19.78-10.91.24.28-9.35,1.94-19.39,11.31-10.14,8.94-17.85,27.7-12.95,45.4,4.25,17.87,20.15,30.39,33.13,33.3,3.11.48,5.88,1.22,8.31,2.09,9.16,3.24,12.69,7.43,12.69,7.43l-1.72,1.53Z"/><path class="cls-1" d="M78.15,44.51c-.31-.15-.65-.25-.99-.32-2.07-.41-4.15-.79-6.22-1.19-4.63-.9-9.28-1.71-13.84-2.94-.98-.29-2.01-.4-3.02-.3-.84.1-1.69.17-2.51.34-3.98.82-7.98,1.62-11.95,2.53-2.63.61-5.23,1.38-7.84,2.1-.3.11-.59.24-.87.4.23.18.47.33.71.48.82.36,1.64.7,2.47,1.05.22.1.44.21.57.27,0,1.5.05,2.92-.02,4.34.01.55-.19,1.08-.57,1.47-.3.28-.46.74-.19,1.09.38.49.29.93.12,1.44-.12.38-.2.77-.22,1.17-.16,2.15-.34,4.31-.44,6.47-.1,2.09-.12,4.18-.17,6.27-.02.62.06.69.66.68.25-.02.5-.01.74.03.53.12,1.08.14,1.62.04.7-.11.74-.17.66-.84-.14-1.19-.3-2.37-.36-3.56-.07-1.62-.03-3.24-.08-4.85-.06-2.04.02-4.09-.42-6.1-.02-.16.01-.33.09-.48.34-.61.18-1.11-.2-1.65-.5-.7-.92-1.45-.7-2.39.07-.44.09-.89.07-1.34v-1.56l8.46,3.12c-.06.32-.09.62-.16.9-.55,2.15-1.09,4.3-1.67,6.42-.22.82-.18.88.62,1.19,3.87,1.44,7.48,3.37,10.69,5.98.52.42,1.02.88,1.55,1.29.63.49.89.48,1.52.01,4.08-3.07,8.61-5.33,13.29-7.31.71-.3.71-.28.51-1.01-.67-2.42-1.33-4.84-2.01-7.31.17-.11.24-.18.33-.22l9.05-4.37c.28-.12.54-.25.8-.4.48-.32.45-.71-.07-.96Z"/></svg>